<?xml version="1.0" encoding="UTF-8" standalone="no"?>
<!-- Created with Inkscape (http://www.inkscape.org/) -->

<svg
   xmlns:dc="http://purl.org/dc/elements/1.1/"
   xmlns:cc="http://creativecommons.org/ns#"
   xmlns:rdf="http://www.w3.org/1999/02/22-rdf-syntax-ns#"
   xmlns:svg="http://www.w3.org/2000/svg"
   xmlns="http://www.w3.org/2000/svg"
   xmlns:sodipodi="http://sodipodi.sourceforge.net/DTD/sodipodi-0.dtd"
   xmlns:inkscape="http://www.inkscape.org/namespaces/inkscape"
   width="301.18109"
   height="194.8819"
   id="svg2"
   version="1.1"
   inkscape:version="0.48.5 r10040"
   sodipodi:docname="card-fsfe-back.svg">
  <defs
     id="defs4" />
  <sodipodi:namedview
     id="base"
     pagecolor="#ffffff"
     bordercolor="#666666"
     borderopacity="1.0"
     inkscape:pageopacity="0.0"
     inkscape:pageshadow="2"
     inkscape:zoom="3.2322048"
     inkscape:cx="166.54591"
     inkscape:cy="93.709892"
     inkscape:document-units="px"
     inkscape:current-layer="layer1"
     showgrid="false"
     units="px"
     inkscape:window-width="1676"
     inkscape:window-height="1007"
     inkscape:window-x="0"
     inkscape:window-y="20"
     inkscape:window-maximized="0"
     showguides="false"
     inkscape:snap-global="true">
    <inkscape:grid
       type="xygrid"
       id="grid3020"
       empspacing="5"
       visible="true"
       enabled="true"
       snapvisiblegridlinesonly="true" />
  </sodipodi:namedview>
  <metadata
     id="metadata7">
    <rdf:RDF>
      <cc:Work
         rdf:about="">
        <dc:format>image/svg+xml</dc:format>
        <dc:type
           rdf:resource="http://purl.org/dc/dcmitype/StillImage" />
        <dc:title />
      </cc:Work>
    </rdf:RDF>
  </metadata>
  <g
     inkscape:label="Layer 1"
     inkscape:groupmode="layer"
     id="layer1"
     transform="translate(0,-857.47899)">
    <text
       xml:space="preserve"
       style="font-size:12px;font-style:normal;font-weight:normal;line-height:125%;letter-spacing:0px;word-spacing:0px;fill:#000000;fill-opacity:1;stroke:none;font-family:Sans"
       x="190"
       y="997.3609"
       id="text3030"
       sodipodi:linespacing="125%"><tspan
         sodipodi:role="line"
         id="tspan3032"
         x="190"
         y="997.3609" /></text>
    <text
       xml:space="preserve"
       style="font-size:16px;font-style:normal;font-variant:normal;font-weight:bold;font-stretch:normal;line-height:125%;letter-spacing:0px;word-spacing:0px;fill:#000000;fill-opacity:1;stroke:none;font-family:Nimbus Sans L;-inkscape-font-specification:Sans Bold"
       x="17.659536"
       y="1032.5734"
       id="text4615"
       sodipodi:linespacing="125%"><tspan
         sodipodi:role="line"
         id="tspan4617"
         x="17.659536"
         y="1032.5734"
         style="font-size:9.5px;font-weight:normal;-inkscape-font-specification:Nimbus Sans L">www.fsfe.org</tspan></text>
    <g
       transform="matrix(1.1620612,0,0,1.1649685,67.067446,492.57421)"
       id="g4635">
      <g
         transform="translate(54.1883,292.9987)"
         id="g2870"
         style="fill:none">
        <path
           d="m 2.189,84.694 c 0.005,-2.452 0.996,-4.673 2.595,-6.282 1.599,-1.609 3.807,-2.607 6.243,-2.612 0,0 30.84,8.801 30.84,8.801 0,0 30.873,-8.915 30.873,-8.915 2.436,-0.004 4.639,0.985 6.233,2.589 1.594,1.604 2.577,3.821 2.572,6.272 0,0 -8.859,31.069 -8.859,31.069 0,0 8.745,31.037 8.745,31.037 -0.004,2.451 -0.996,4.672 -2.595,6.282 -1.599,1.61 -3.806,2.607 -6.242,2.612 0,0 -30.841,-8.801 -30.841,-8.801 0,0 -30.873,8.915 -30.873,8.915 -2.436,0.005 -4.64,-0.985 -6.233,-2.588 -1.593,-1.604 -2.577,-3.821 -2.572,-6.273 0,0 8.859,-31.069 8.859,-31.069 0,0 -8.745,-31.037 -8.745,-31.037 z"
           id="path2872"
           inkscape:connector-curvature="0"
           style="fill:#4ad2f0" />
      </g>
      <g
         transform="translate(54.1883,292.9987)"
         id="g2874"
         style="fill:none">
        <path
           d="m 63.727,9.234 c 1.131,-2.931 3.337,-5.132 5.989,-6.323 2.652,-1.191 5.751,-1.371 8.667,-0.257 0,0 32.85,24.689 32.85,24.689 0,0 41.024,3.513 41.024,3.513 2.916,1.113 5.097,3.309 6.267,5.959 1.17,2.65 1.328,5.754 0.197,8.685 0,0 -24.863,33.098 -24.863,33.098 0,0 -3.791,41.142 -3.791,41.142 -1.131,2.93 -3.337,5.132 -5.989,6.323 -2.652,1.191 -5.75,1.371 -8.667,0.258 0,0 -32.85,-24.69 -32.85,-24.69 0,0 -41.024,-3.513 -41.024,-3.513 -2.916,-1.113 -5.098,-3.309 -6.267,-5.959 -1.17,-2.65 -1.327,-5.754 -0.196,-8.685 0,0 24.863,-33.097 24.863,-33.097 0,0 3.79,-41.143 3.79,-41.143 z"
           id="path2876"
           inkscape:connector-curvature="0"
           style="fill:#d0f400" />
      </g>
      <g
         transform="translate(54.1883,292.9987)"
         id="g2878"
         style="fill:none">
        <path
           d="m 65.827,175.084 c -0.51,-1.335 -0.434,-2.752 0.1,-3.962 0.534,-1.21 1.527,-2.214 2.853,-2.726 0,0 18.628,-1.653 18.628,-1.653 0,0 14.944,-11.305 14.944,-11.305 1.325,-0.512 2.731,-0.433 3.934,0.107 1.203,0.54 2.201,1.542 2.711,2.877 0,0 1.67,18.765 1.67,18.765 0,0 11.247,15.068 11.247,15.068 0.51,1.335 0.434,2.751 -0.1,3.962 -0.534,1.211 -1.527,2.215 -2.852,2.727 0,0 -18.628,1.653 -18.628,1.653 0,0 -14.944,11.305 -14.944,11.305 -1.325,0.511 -2.732,0.433 -3.934,-0.107 -1.202,-0.54 -2.201,-1.542 -2.711,-2.877 0,0 -1.67,-18.764 -1.67,-18.764 0,0 -11.248,-15.07 -11.248,-15.07 z"
           id="path2880"
           inkscape:connector-curvature="0"
           style="fill:#3394ce" />
      </g>
      <g
         transform="translate(54.1883,292.9987)"
         id="g2882"
         style="fill:none">
        <path
           d="m 35.575,82.806 6.292,1.795 c 0,0 30.873,-8.915 30.873,-8.915 2.436,-0.004 4.639,0.985 6.233,2.589 1.594,1.604 2.577,3.821 2.572,6.272 0,0 -4.73,16.59 -4.73,16.59 0,0 -35.278,-3.021 -35.278,-3.021 -2.916,-1.113 -5.098,-3.309 -6.267,-5.959 -1.17,-2.65 -1.327,-5.754 -0.196,-8.685 -10e-4,0.002 0.501,-0.666 0.501,-0.666 z"
           id="path2884"
           inkscape:connector-curvature="0"
           style="fill:#6bb340" />
      </g>
    </g>
    <text
       xml:space="preserve"
       style="font-size:16.00002289px;font-style:normal;font-variant:normal;font-weight:bold;font-stretch:normal;line-height:125%;letter-spacing:0px;word-spacing:0px;fill:#000000;fill-opacity:1;stroke:none;font-family:Nimbus Sans L;-inkscape-font-specification:Sans Bold"
       x="17.39016"
       y="880.36871"
       id="text4687"
       sodipodi:linespacing="125%"
       transform="scale(0.9999986,1.0000014)"><tspan
         sodipodi:role="line"
         id="tspan4689"
         x="17.39016"
         y="880.36871"
         style="font-size:9.60001373px;font-weight:normal;-inkscape-font-specification:Nimbus Sans L">use</tspan><tspan
         sodipodi:role="line"
         x="17.39016"
         y="892.36871"
         id="tspan4691"
         style="font-size:9.60001373px;font-weight:normal;-inkscape-font-specification:Nimbus Sans L">study</tspan><tspan
         sodipodi:role="line"
         x="17.39016"
         y="904.36877"
         id="tspan4693"
         style="font-size:9.60001373px;font-weight:normal;-inkscape-font-specification:Nimbus Sans L">share</tspan><tspan
         sodipodi:role="line"
         x="17.39016"
         y="916.36877"
         id="tspan4695"
         style="font-size:9.60001373px;font-weight:normal;-inkscape-font-specification:Nimbus Sans L">improve</tspan><tspan
         sodipodi:role="line"
         x="17.39016"
         y="928.36877"
         id="tspan4697"
         style="font-size:9.60001373px;font-weight:normal;-inkscape-font-specification:Nimbus Sans L" /></text>
  </g>
</svg>
