<?xml version="1.0" encoding="UTF-8" standalone="no"?>
<!-- Created with Inkscape (http://www.inkscape.org/) -->

<svg
   xmlns:dc="http://purl.org/dc/elements/1.1/"
   xmlns:cc="http://creativecommons.org/ns#"
   xmlns:rdf="http://www.w3.org/1999/02/22-rdf-syntax-ns#"
   xmlns:svg="http://www.w3.org/2000/svg"
   xmlns="http://www.w3.org/2000/svg"
   xmlns:sodipodi="http://sodipodi.sourceforge.net/DTD/sodipodi-0.dtd"
   xmlns:inkscape="http://www.inkscape.org/namespaces/inkscape"
   width="301.18109"
   height="194.8819"
   id="svg2"
   version="1.1"
   inkscape:version="0.48.5 r10040"
   sodipodi:docname="card-fsfe.svg">
  <defs
     id="defs4">
    <clipPath
       id="clp1"
       fill="none">
      <path
         style="stroke:#000000"
         inkscape:connector-curvature="0"
         shape-rendering="crispEdges"
         d="M 0,0 H 595.276 V 841.89 H 0 z"
         id="path2866" />
    </clipPath>
  </defs>
  <sodipodi:namedview
     id="base"
     pagecolor="#ffffff"
     bordercolor="#666666"
     borderopacity="1.0"
     inkscape:pageopacity="0.0"
     inkscape:pageshadow="2"
     inkscape:zoom="1"
     inkscape:cx="150.59055"
     inkscape:cy="97.440948"
     inkscape:document-units="px"
     inkscape:current-layer="layer1"
     showgrid="false"
     units="mm"
     inkscape:window-width="1676"
     inkscape:window-height="1007"
     inkscape:window-x="0"
     inkscape:window-y="20"
     inkscape:window-maximized="0"
     showguides="false"
     inkscape:snap-global="true">
    <inkscape:grid
       type="xygrid"
       id="grid3020"
       empspacing="5"
       visible="true"
       enabled="true"
       snapvisiblegridlinesonly="true" />
  </sodipodi:namedview>
  <metadata
     id="metadata7">
    <rdf:RDF>
      <cc:Work
         rdf:about="">
        <dc:format>image/svg+xml</dc:format>
        <dc:type
           rdf:resource="http://purl.org/dc/dcmitype/StillImage" />
        <dc:title />
      </cc:Work>
    </rdf:RDF>
  </metadata>
  <g
     inkscape:label="Layer 1"
     inkscape:groupmode="layer"
     id="layer1"
     transform="translate(0,-857.47897)">
    <text
       xml:space="preserve"
       style="font-size:12px;font-style:normal;font-weight:normal;line-height:125%;letter-spacing:0px;word-spacing:0px;fill:#000000;fill-opacity:1;stroke:none;font-family:Sans"
       x="190"
       y="997.3609"
       id="text3030"
       sodipodi:linespacing="125%"><tspan
         sodipodi:role="line"
         id="tspan3032"
         x="190"
         y="997.3609" /></text>
    <g
       transform="matrix(0.21342395,0,0,0.21268197,166.57475,811.30438)"
       style="fill:none"
       clip-path="url(#clp1)"
       id="g2868">
      <g
         transform="translate(54.1883,292.9987)"
         id="g2870">
        <path
           style="fill:#4ad2f0"
           inkscape:connector-curvature="0"
           d="m 2.189,84.694 c 0.005,-2.452 0.996,-4.673 2.595,-6.282 1.599,-1.609 3.807,-2.607 6.243,-2.612 0,0 30.84,8.801 30.84,8.801 0,0 30.873,-8.915 30.873,-8.915 2.436,-0.004 4.639,0.985 6.233,2.589 1.594,1.604 2.577,3.821 2.572,6.272 0,0 -8.859,31.069 -8.859,31.069 0,0 8.745,31.037 8.745,31.037 -0.004,2.451 -0.996,4.672 -2.595,6.282 -1.599,1.61 -3.806,2.607 -6.242,2.612 0,0 -30.841,-8.801 -30.841,-8.801 0,0 -30.873,8.915 -30.873,8.915 -2.436,0.005 -4.64,-0.985 -6.233,-2.588 -1.593,-1.604 -2.577,-3.821 -2.572,-6.273 0,0 8.859,-31.069 8.859,-31.069 0,0 -8.745,-31.037 -8.745,-31.037 z"
           id="path2872" />
      </g>
      <g
         transform="translate(54.1883,292.9987)"
         id="g2874">
        <path
           style="fill:#d0f400"
           inkscape:connector-curvature="0"
           d="m 63.727,9.234 c 1.131,-2.931 3.337,-5.132 5.989,-6.323 2.652,-1.191 5.751,-1.371 8.667,-0.257 0,0 32.85,24.689 32.85,24.689 0,0 41.024,3.513 41.024,3.513 2.916,1.113 5.097,3.309 6.267,5.959 1.17,2.65 1.328,5.754 0.197,8.685 0,0 -24.863,33.098 -24.863,33.098 0,0 -3.791,41.142 -3.791,41.142 -1.131,2.93 -3.337,5.132 -5.989,6.323 -2.652,1.191 -5.75,1.371 -8.667,0.258 0,0 -32.85,-24.69 -32.85,-24.69 0,0 -41.024,-3.513 -41.024,-3.513 -2.916,-1.113 -5.098,-3.309 -6.267,-5.959 -1.17,-2.65 -1.327,-5.754 -0.196,-8.685 0,0 24.863,-33.097 24.863,-33.097 0,0 3.79,-41.143 3.79,-41.143 z"
           id="path2876" />
      </g>
      <g
         transform="translate(54.1883,292.9987)"
         id="g2878">
        <path
           style="fill:#3394ce"
           inkscape:connector-curvature="0"
           d="m 65.827,175.084 c -0.51,-1.335 -0.434,-2.752 0.1,-3.962 0.534,-1.21 1.527,-2.214 2.853,-2.726 0,0 18.628,-1.653 18.628,-1.653 0,0 14.944,-11.305 14.944,-11.305 1.325,-0.512 2.731,-0.433 3.934,0.107 1.203,0.54 2.201,1.542 2.711,2.877 0,0 1.67,18.765 1.67,18.765 0,0 11.247,15.068 11.247,15.068 0.51,1.335 0.434,2.751 -0.1,3.962 -0.534,1.211 -1.527,2.215 -2.852,2.727 0,0 -18.628,1.653 -18.628,1.653 0,0 -14.944,11.305 -14.944,11.305 -1.325,0.511 -2.732,0.433 -3.934,-0.107 -1.202,-0.54 -2.201,-1.542 -2.711,-2.877 0,0 -1.67,-18.764 -1.67,-18.764 0,0 -11.248,-15.07 -11.248,-15.07 z"
           id="path2880" />
      </g>
      <g
         transform="translate(54.1883,292.9987)"
         id="g2882">
        <path
           style="fill:#6bb340"
           inkscape:connector-curvature="0"
           d="m 35.575,82.806 6.292,1.795 c 0,0 30.873,-8.915 30.873,-8.915 2.436,-0.004 4.639,0.985 6.233,2.589 1.594,1.604 2.577,3.821 2.572,6.272 0,0 -4.73,16.59 -4.73,16.59 0,0 -35.278,-3.021 -35.278,-3.021 -2.916,-1.113 -5.098,-3.309 -6.267,-5.959 -1.17,-2.65 -1.327,-5.754 -0.196,-8.685 -10e-4,0.002 0.501,-0.666 0.501,-0.666 z"
           id="path2884" />
      </g>
      <g
         transform="translate(54.1883,292.9987)"
         id="g2886">
        <path
           style="fill:#202d79"
           inkscape:connector-curvature="0"
           d="m 182.238,121.084 c 0,0 -0.085,18.031 -0.085,18.031 0,0 23.358,0 23.358,0 4.063,0 7.357,3.294 7.357,7.357 0,4.063 -3.294,7.357 -7.357,7.357 0,0 -23.358,0 -23.358,0 0,0 0,91.975 0,91.975 0,4.515 -3.66,8.174 -8.174,8.174 -4.514,0 -8.174,-3.66 -8.174,-8.174 0,0 0,-91.975 0,-91.975 0,0 -14.164,0 -14.164,0 -4.063,0 -7.357,-3.294 -7.357,-7.357 0,-4.063 3.294,-7.357 7.357,-7.357 0,0 13.962,0 13.962,0 0,0 0,-16.11 0,-16.11 0,-19.822 12.463,-29.833 31.265,-29.833 0,0 8.644,0 8.644,0 4.063,0 7.357,3.294 7.357,7.357 0,4.063 -3.294,7.357 -7.357,7.357 0,0 -8.644,0 -8.644,0 -11.105,0.001 -14.63,3.987 -14.63,13.198 z"
           id="path2888" />
      </g>
      <g
         transform="translate(54.1883,292.9987)"
         id="g2890">
        <path
           style="fill:#202d79"
           inkscape:connector-curvature="0"
           d="m 355.087,121.084 c 0,0 -0.085,18.031 -0.085,18.031 0,0 23.358,0 23.358,0 4.063,0 7.357,3.294 7.357,7.357 0,4.063 -3.294,7.357 -7.357,7.357 0,0 -23.358,0 -23.358,0 0,0 0,91.975 0,91.975 0,4.515 -3.66,8.174 -8.174,8.174 -4.514,0 -8.174,-3.66 -8.174,-8.174 0,0 0,-91.975 0,-91.975 0,0 -14.165,0 -14.165,0 -4.063,0 -7.357,-3.294 -7.357,-7.357 0,-4.063 3.294,-7.357 7.357,-7.357 0,0 13.962,0 13.962,0 0,0 0,-16.11 0,-16.11 0,-19.822 12.463,-29.833 31.265,-29.833 0,0 8.644,0 8.644,0 4.063,0 7.357,3.294 7.357,7.357 0,4.063 -3.294,7.357 -7.357,7.357 0,0 -8.644,0 -8.644,0 -11.103,0.001 -14.629,3.987 -14.629,13.198 z"
           id="path2892" />
      </g>
      <g
         transform="translate(54.1883,292.9987)"
         id="g2894">
        <path
           style="fill:#202d79"
           inkscape:connector-curvature="0"
           d="m 402.657,187.03 c 0,0 66.916,0 66.916,0 -2.767,-22.476 -15.458,-32.213 -31.211,-32.213 -19.651,0 -32.445,12.228 -35.705,32.213 z m 35.995,51.454 c 17.733,0 25.347,-9.427 28.229,-13.146 0,0 3.535,-4.626 5.499,-5.205 1.793,-0.52 3.782,-0.369 5.56,0.577 3.228,1.716 4.673,5.471 3.593,8.833 -0.468,1.793 -1.401,4.061 -2.95,6.524 -5.313,8.034 -17.115,17.804 -40.222,17.804 -31.579,0 -51.811,-20.318 -51.811,-55.31 0,-30.331 15.947,-59.032 51.811,-59.032 27.191,0 44.701,19.157 46.838,50.121 0,11.645 -4.845,12.094 -17.925,12.094 0,0 -65.328,0 -65.328,0 1.495,33.113 24.433,36.74 36.706,36.74 z"
           id="path2896" />
      </g>
      <g
         transform="translate(54.1883,292.9987)"
         id="g2898">
        <path
           style="fill:#202d79"
           inkscape:connector-curvature="0"
           d="m 221.995,172.263 c 0,-17.939 15.942,-32.083 41.568,-32.083 0,0 0.614,0.002 0.614,0.002 22.041,-0.007 33.241,9.637 38.283,17.567 1.47,2.431 2.356,4.67 2.8,6.44 1.025,3.318 -0.347,7.025 -3.41,8.719 -1.688,0.934 -3.576,1.083 -5.277,0.57 -1.864,-0.571 -5.219,-5.138 -5.219,-5.138 -1.978,-2.653 -6.306,-8.254 -14.907,-11.153 -3.725,-1.182 -7.918,-1.815 -12.884,-1.815 -15.942,0 -25.426,6.519 -25.426,16.487 0,7.143 5.046,12.913 13.723,14.729 0,0 27.439,5.85 27.439,5.85 14.933,3.229 28.049,10.949 28.049,28.655 0,18.78 -16.343,32.765 -42.978,32.765 0,0 -1.164,0.011 -1.164,0.011 -23.107,0 -34.909,-9.77 -40.222,-17.804 -1.549,-2.463 -2.483,-4.731 -2.95,-6.524 -1.08,-3.362 0.365,-7.117 3.593,-8.833 1.778,-0.945 3.768,-1.096 5.561,-0.577 1.964,0.579 5.499,5.205 5.499,5.205 2.098,2.706 6.703,8.436 15.888,11.354 4.051,1.286 8.664,1.955 13.795,1.955 17.756,0 26.635,-7.081 26.635,-16.949 0,-6.758 -5.046,-12.51 -13.319,-14.326 0,0 -28.249,-5.85 -28.249,-5.85 -14.933,-3.028 -27.442,-11.989 -27.442,-29.257 z"
           id="path2900" />
      </g>
    </g>
    <text
       xml:space="preserve"
       style="font-size:9.5px;font-style:normal;font-variant:normal;font-weight:bold;font-stretch:normal;line-height:50%;letter-spacing:0px;word-spacing:0px;fill:#000000;fill-opacity:1;stroke:none;font-family:Nimbus Sans L;-inkscape-font-specification:Sans Bold"
       x="17.716536"
       y="960.69971"
       id="text4464"
       sodipodi:linespacing="50%"><tspan
         sodipodi:role="line"
         id="tspan4466"
         x="17.716536"
         y="960.69971"
         style="font-size:9.5px;line-height:125%">Felix Stegerman</tspan><tspan
         sodipodi:role="line"
         x="17.716536"
         y="972.67584"
         id="tspan4470"
         style="font-size:9.5px;font-weight:normal;line-height:125%;-inkscape-font-specification:Nimbus Sans L">Deputy Coordinator Netherlands</tspan><tspan
         sodipodi:role="line"
         x="17.716536"
         y="979.06604"
         style="font-size:9.5px;font-weight:normal;line-height:50%;-inkscape-font-specification:Nimbus Sans L"
         id="tspan4476">­</tspan><tspan
         sodipodi:role="line"
         x="17.716536"
         y="989.30084"
         style="font-size:9.5px;font-weight:normal;line-height:125%;-inkscape-font-specification:Nimbus Sans L"
         id="tspan4478">Free Software Foundation Europe</tspan><tspan
         sodipodi:role="line"
         x="17.716536"
         y="995.69104"
         style="font-size:9.5px;font-weight:normal;line-height:50%;-inkscape-font-specification:Nimbus Sans L"
         id="tspan4480">­</tspan><tspan
         sodipodi:role="line"
         x="17.716536"
         y="1005.9258"
         style="font-size:9.5px;font-weight:normal;line-height:125%;-inkscape-font-specification:Nimbus Sans L"
         id="tspan4508">flx@fsfe.org     </tspan><tspan
         sodipodi:role="line"
         x="17.716536"
         y="1017.8008"
         style="font-size:9.5px;font-weight:normal;line-height:125%;-inkscape-font-specification:Nimbus Sans L"
         id="tspan4514">+316XXXXXXXX</tspan><tspan
         sodipodi:role="line"
         x="17.716536"
         y="1024.191"
         style="font-size:9.5px;font-weight:normal;line-height:50%;-inkscape-font-specification:Nimbus Sans L"
         id="tspan4492">­</tspan><tspan
         sodipodi:role="line"
         x="17.716536"
         y="1034.4258"
         style="font-size:9.5px;font-weight:normal;line-height:125%;-inkscape-font-specification:Nimbus Sans L"
         id="tspan4496">D5E4 A51D F8D2 55B9 FAC6  A9BB 2F96 07F0 9B36 0F2D</tspan><tspan
         sodipodi:role="line"
         x="17.716536"
         y="1046.3008"
         style="font-size:9.5px;font-weight:normal;line-height:125%;-inkscape-font-specification:Nimbus Sans L"
         id="tspan4488" /><tspan
         sodipodi:role="line"
         x="17.716536"
         y="1058.1758"
         style="font-size:9.5px;font-weight:normal;line-height:125%;-inkscape-font-specification:Nimbus Sans L"
         id="tspan4490" /><tspan
         sodipodi:role="line"
         x="17.716536"
         y="1070.0508"
         style="font-size:9.5px;font-weight:normal;line-height:125%;-inkscape-font-specification:Nimbus Sans L"
         id="tspan4484" /></text>
  </g>
</svg>
